<?xml version="1.0" encoding="UTF-8"?>
<svg xmlns="http://www.w3.org/2000/svg" viewBox="0 0 275 260" width="412" height="390">
<title>GCTRL Stacked — Color (dunkle BGs)</title>
<defs>
<linearGradient id="hexG" x1="0%" y1="0%" x2="100%" y2="100%">
<stop offset="0%" stop-color="#1F6DDC"/>
<stop offset="60%" stop-color="#0F4FB8"/>
<stop offset="100%" stop-color="#072858"/>
</linearGradient>
<radialGradient id="nodeG" cx="0.35" cy="0.35" r="0.7">
<stop offset="0%" stop-color="#FFFFFF"/>
<stop offset="65%" stop-color="#DBEAFE"/>
<stop offset="100%" stop-color="#7FBFFF"/>
</radialGradient>
<radialGradient id="hubG" cx="0.35" cy="0.35" r="0.85">
<stop offset="0%" stop-color="#FFFFFF"/>
<stop offset="55%" stop-color="#9FCFFF"/>
<stop offset="100%" stop-color="#4A95EE"/>
</radialGradient>
</defs>
<g transform="translate(137.51, 90.0) scale(1.2)">
<polygon points="0,-48 41.6,-24 41.6,24 0,48 -41.6,24 -41.6,-24" fill="url(#hexG)" stroke="#E8F2FF" stroke-width="2" stroke-linejoin="round"/>
<g stroke="#E8F2FF" stroke-width="1.5" fill="none" opacity="0.92" stroke-linecap="round">
<line x1="0" y1="-48" x2="0" y2="0"/><line x1="41.6" y1="-24" x2="0" y2="0"/>
<line x1="41.6" y1="24" x2="0" y2="0"/><line x1="0" y1="48" x2="0" y2="0"/>
<line x1="-41.6" y1="24" x2="0" y2="0"/><line x1="-41.6" y1="-24" x2="0" y2="0"/>
</g>
<g fill="url(#nodeG)" stroke="#FFFFFF" stroke-width="0.5">
<circle cx="0" cy="-48" r="4.5"/><circle cx="41.6" cy="-24" r="4.5"/>
<circle cx="41.6" cy="24" r="4.5"/><circle cx="0" cy="48" r="4.5"/>
<circle cx="-41.6" cy="24" r="4.5"/><circle cx="-41.6" cy="-24" r="4.5"/>
</g>
<circle cx="0" cy="0" r="7.5" fill="url(#hubG)" stroke="#FFFFFF" stroke-width="0.6"/>
</g>
<g transform="translate(30.00, 211.44)"><g transform="translate(0.000, 0) scale(0.05200, -0.05200)"><path d="M204 0Q164 0 130.0 20.0Q96 40 76.0 74.0Q56 108 56 148V572Q56 613 76.0 646.5Q96 680 130.0 700.0Q164 720 204 720H627Q668 720 701.5 700.0Q735 680 755.5 646.5Q776 613 776 572V504H619V564Q619 564 619.0 564.0Q619 564 619 564H211Q211 564 211.0 564.0Q211 564 211 564V156Q211 156 211.0 156.0Q211 156 211 156H619Q619 156 619.0 156.0Q619 156 619 156V264H463V420H776V148Q776 108 755.5 74.0Q735 40 701.5 20.0Q668 0 627 0Z" fill="#FFFFFF"/></g>
<g transform="translate(44.720, 0) scale(0.05200, -0.05200)"><path d="M204 0Q163 0 129.5 20.0Q96 40 76.0 73.5Q56 107 56 148V572Q56 613 76.0 646.5Q96 680 129.5 700.0Q163 720 204 720H774V564H244Q228 564 219.5 556.0Q211 548 211 531V189Q211 173 219.5 164.5Q228 156 244 156H774V0Z" fill="#FFFFFF"/></g>
<g transform="translate(89.024, 0) scale(0.05200, -0.05200)"><path d="M302 0V564H20V720H740V564H458V0Z" fill="#FFFFFF"/></g>
<g transform="translate(130.052, 0) scale(0.05200, -0.05200)"><path d="M615 0 406 249H609L775 53V0ZM56 0V719H627Q668 719 701.5 699.0Q735 679 755.5 645.0Q776 611 776 571V385Q776 345 755.5 311.0Q735 277 701.5 257.0Q668 237 627 237L211 236V0ZM211 393H619Q619 393 619.0 393.0Q619 393 619 393V564Q619 564 619.0 564.0Q619 564 619 564H211Q211 564 211.0 564.0Q211 564 211 564V393Q211 393 211.0 393.0Q211 393 211 393Z" fill="#FFFFFF"/></g>
<g transform="translate(174.512, 0) scale(0.05200, -0.05200)"><path d="M57 0V721H212V156H777V0Z" fill="#FFFFFF"/></g></g>
<g transform="translate(61.44, 232.64)"><g transform="translate(0.000, 0) scale(0.01000, -0.01000)"><path d="M204 0Q164 0 130.0 20.0Q96 40 76.0 74.0Q56 108 56 148V572Q56 613 76.0 646.5Q96 680 130.0 700.0Q164 720 204 720H627Q668 720 701.5 700.0Q735 680 755.5 646.5Q776 613 776 572V504H619V564Q619 564 619.0 564.0Q619 564 619 564H211Q211 564 211.0 564.0Q211 564 211 564V156Q211 156 211.0 156.0Q211 156 211 156H619Q619 156 619.0 156.0Q619 156 619 156V264H463V420H776V148Q776 108 755.5 74.0Q735 40 701.5 20.0Q668 0 627 0Z" fill="#5DA9FF"/></g>
<g transform="translate(11.100, 0) scale(0.01000, -0.01000)"><path d="M615 0 406 249H609L775 53V0ZM56 0V719H627Q668 719 701.5 699.0Q735 679 755.5 645.0Q776 611 776 571V385Q776 345 755.5 311.0Q735 277 701.5 257.0Q668 237 627 237L211 236V0ZM211 393H619Q619 393 619.0 393.0Q619 393 619 393V564Q619 564 619.0 564.0Q619 564 619 564H211Q211 564 211.0 564.0Q211 564 211 564V393Q211 393 211.0 393.0Q211 393 211 393Z" fill="#5DA9FF"/></g>
<g transform="translate(22.150, 0) scale(0.01000, -0.01000)"><path d="M202 0Q162 0 128.0 20.0Q94 40 74.0 74.0Q54 108 54 148V572Q54 613 74.0 646.5Q94 680 128.0 700.0Q162 720 202 720H626Q666 720 699.5 700.0Q733 680 753.5 646.5Q774 613 774 572V148Q774 108 753.5 74.0Q733 40 699.5 20.0Q666 0 626 0ZM209 156H617Q617 156 617.0 156.0Q617 156 617 156V564Q617 564 617.0 564.0Q617 564 617 564H209Q209 564 209.0 564.0Q209 564 209 564V156Q209 156 209.0 156.0Q209 156 209 156Z" fill="#5DA9FF"/></g>
<g transform="translate(33.230, 0) scale(0.01000, -0.01000)"><path d="M202 0Q162 0 128.0 20.0Q94 40 74.0 74.0Q54 108 54 148V720H209V156Q209 156 209.0 156.0Q209 156 209 156H617Q617 156 617.0 156.0Q617 156 617 156V720H774V148Q774 108 753.5 74.0Q733 40 699.5 20.0Q666 0 626 0H202Z" fill="#5DA9FF"/></g>
<g transform="translate(44.310, 0) scale(0.01000, -0.01000)"><path d="M56 0V720H216L619 240V720H776V0H616L211 482V0Z" fill="#5DA9FF"/></g>
<g transform="translate(55.430, 0) scale(0.01000, -0.01000)"><path d="M58 0V720H629Q670 720 703.5 700.0Q737 680 757.5 646.5Q778 613 778 572V148Q778 108 757.5 74.0Q737 40 703.5 20.0Q670 0 629 0ZM212 156H621Q621 156 621.0 156.0Q621 156 621 156V564Q621 564 621.0 564.0Q621 564 621 564H212Q212 564 212.0 564.0Q212 564 212 564V156Q212 156 212.0 156.0Q212 156 212 156Z" fill="#5DA9FF"/></g>
<g transform="translate(66.570, 0) scale(0.01000, -0.01000)"><path d="" fill="#5DA9FF"/></g>
<g transform="translate(72.590, 0) scale(0.01000, -0.01000)"><path d="" fill="#5DA9FF"/></g>
<g transform="translate(78.610, 0) scale(0.01000, -0.01000)"><path d="M204 0Q163 0 129.5 20.0Q96 40 76.0 73.5Q56 107 56 148V572Q56 613 76.0 646.5Q96 680 129.5 700.0Q163 720 204 720H774V564H244Q228 564 219.5 556.0Q211 548 211 531V189Q211 173 219.5 164.5Q228 156 244 156H774V0Z" fill="#5DA9FF"/></g>
<g transform="translate(89.630, 0) scale(0.01000, -0.01000)"><path d="M202 0Q162 0 128.0 20.0Q94 40 74.0 74.0Q54 108 54 148V572Q54 613 74.0 646.5Q94 680 128.0 700.0Q162 720 202 720H626Q666 720 699.5 700.0Q733 680 753.5 646.5Q774 613 774 572V148Q774 108 753.5 74.0Q733 40 699.5 20.0Q666 0 626 0ZM209 156H617Q617 156 617.0 156.0Q617 156 617 156V564Q617 564 617.0 564.0Q617 564 617 564H209Q209 564 209.0 564.0Q209 564 209 564V156Q209 156 209.0 156.0Q209 156 209 156Z" fill="#5DA9FF"/></g>
<g transform="translate(100.710, 0) scale(0.01000, -0.01000)"><path d="M56 0V720H216L619 240V720H776V0H616L211 482V0Z" fill="#5DA9FF"/></g>
<g transform="translate(111.830, 0) scale(0.01000, -0.01000)"><path d="M302 0V564H20V720H740V564H458V0Z" fill="#5DA9FF"/></g>
<g transform="translate(122.220, 0) scale(0.01000, -0.01000)"><path d="M615 0 406 249H609L775 53V0ZM56 0V719H627Q668 719 701.5 699.0Q735 679 755.5 645.0Q776 611 776 571V385Q776 345 755.5 311.0Q735 277 701.5 257.0Q668 237 627 237L211 236V0ZM211 393H619Q619 393 619.0 393.0Q619 393 619 393V564Q619 564 619.0 564.0Q619 564 619 564H211Q211 564 211.0 564.0Q211 564 211 564V393Q211 393 211.0 393.0Q211 393 211 393Z" fill="#5DA9FF"/></g>
<g transform="translate(133.270, 0) scale(0.01000, -0.01000)"><path d="M202 0Q162 0 128.0 20.0Q94 40 74.0 74.0Q54 108 54 148V572Q54 613 74.0 646.5Q94 680 128.0 700.0Q162 720 202 720H626Q666 720 699.5 700.0Q733 680 753.5 646.5Q774 613 774 572V148Q774 108 753.5 74.0Q733 40 699.5 20.0Q666 0 626 0ZM209 156H617Q617 156 617.0 156.0Q617 156 617 156V564Q617 564 617.0 564.0Q617 564 617 564H209Q209 564 209.0 564.0Q209 564 209 564V156Q209 156 209.0 156.0Q209 156 209 156Z" fill="#5DA9FF"/></g>
<g transform="translate(144.350, 0) scale(0.01000, -0.01000)"><path d="M57 0V721H212V156H777V0Z" fill="#5DA9FF"/></g></g>
</svg>
